<svg id="Capa_1" enable-background="new 0 0 512 512" height="512" viewBox="0 0 512 512" width="512" xmlns="http://www.w3.org/2000/svg"><circle cx="256" cy="256" fill="#ff432e" r="256"/><path d="m512 256c0-22.132-2.81-43.607-8.09-64.09l-90.91-90.91-364.753 127.861 48.123 48.124-46.754 2.436 52.898 52.898-52.898 7.068 170.032 170.032c11.877 1.688 24.009 2.581 36.352 2.581 141.385 0 256-114.615 256-256z" fill="#db0404"/><path d="m285.038 287.091-108.09 10-109.207-10c-13.955 0-25.267-11.312-25.267-25.267 0-13.955 11.312-25.267 25.267-25.267l109.207-9 108.09 9c13.955 0 25.267 11.312 25.267 25.267 0 13.955-11.313 25.267-25.267 25.267z" fill="#a66235"/><path d="m275.944 352.786h-199.11c-18.977 0-34.361-15.384-34.361-34.361 0-17.305 14.029-31.334 31.334-31.334h205.164c17.305 0 31.334 14.029 31.334 31.334 0 18.977-15.384 34.361-34.361 34.361z" fill="#ffd45a"/><path d="m278.971 287.091h-102.365v65.694h99.338c18.977 0 34.361-15.384 34.361-34.36 0-17.305-14.029-31.334-31.334-31.334z" fill="#fcca29"/><path d="m287.42 236.557h-222.062c-12.639 0-22.885-10.246-22.885-22.885 0-36.704 29.754-66.458 66.458-66.458h134.916c36.704 0 66.458 29.754 66.458 66.458 0 12.639-10.246 22.885-22.885 22.885z" fill="#ffd45a"/><path d="m243.847 147.214h-67.241v89.343h110.814c12.639 0 22.885-10.246 22.885-22.885 0-36.704-29.754-66.458-66.458-66.458z" fill="#fcca29"/><path d="m285.038 236.557h-108.432v50.534h108.432c13.955 0 25.267-11.313 25.267-25.267 0-13.954-11.313-25.267-25.267-25.267z" fill="#854d28"/><path d="m239 101h174v301h-174z" fill="#fff"/><path d="m325.697 101h87.303v301h-87.303z" fill="#e9edf5"/><path d="m260.126 149.724h87.832v27.276h-87.832z" fill="#cdcdcd"/><path d="m260.126 204.724h87.832v27.276h-87.832z" fill="#cdcdcd"/><path d="m260.126 259.724h87.832v27.276h-87.832z" fill="#cdcdcd"/><path d="m365.278 149.724h26.596v27.276h-26.596z" fill="#bebebe"/><path d="m365.278 204.724h26.596v27.276h-26.596z" fill="#bebebe"/><path d="m365.278 259.724h26.596v27.276h-26.596z" fill="#bebebe"/><path d="m259.51 334.724h132.98v27.276h-132.98z" fill="#cdcdcd"/><g fill="#bebebe"><path d="m325.697 149.724h22.261v27.276h-22.261z"/><path d="m325.697 204.724h22.261v27.276h-22.261z"/><path d="m325.697 259.724h22.261v27.276h-22.261z"/><path d="m325.697 334.724h66.793v27.276h-66.793z"/></g></svg>